# xmcd
#
# Track frame offsets:
#	150
#	17873
#	32588
#	48990
#	66180
#	83006
#	102597
#	122562
#	138477
#	154688
#	170303
#	184034
#	203399
#	224661
#	245026
#	257865
#	268829
#	285475
#	302365
#	322180
#	341368
#
# Disc length: 4730 seconds
#
# Revision: 1
# Processed by: cddbd v1.4PL0 Copyright (c) Steve Scherf et al.
# Submitted via: audiograbber 1.80
#
DISCID=30127815
DTITLE=Fun Lovin´ Criminals - The Collection 2001
DYEAR=1900
DGENRE=
TTITLE0=Locco
TTITLE1=The Fun Loving Criminals
TTITLE2=Passive-Aggressive
TTITLE3=King of New York
TTITLE4=Bump
TTITLE5=Half a block
TTITLE6=I can´t get with that
TTITLE7=Bear hug
TTITLE8=She´s my friend
TTITLE9=Love unlimited
TTITLE10=The biz
TTITLE11=The view belongs to everyone
TTITLE12=There was a time
TTITLE13=Up on the wall
TTITLE14=Korean Bodega
TTITLE15=10th Street
TTITLE16=Big night out
TTITLE17=Sugar
TTITLE18=Come find yourself
TTITLE19=All for self
TTITLE20=Where the bums go
EXTD=
EXTT0=
EXTT1=
EXTT2=
EXTT3=
EXTT4=
EXTT5=
EXTT6=
EXTT7=
EXTT8=
EXTT9=
EXTT10=
EXTT11=
EXTT12=
EXTT13=
EXTT14=
EXTT15=
EXTT16=
EXTT17=
EXTT18=
EXTT19=
EXTT20=
PLAYORDER=
